<svg xmlns="http://www.w3.org/2000/svg" xmlns:svg="http://www.w3.org/2000/svg" id="图层_1" width="1000" height="560" x="0" y="0" version="1.1" viewBox="0 0 1000 560" xml:space="preserve"><metadata id="metadata211"/><style id="style2" type="text/css">.st0{fill:#fff}.st1{fill:url(#SVGID_1_)}.st2{fill:url(#SVGID_2_)}.st3{fill:url(#SVGID_3_)}.st3,.st5,.st6{opacity:.27;enable-background:new}.st5{fill:url(#SVGID_5_)}.st6{fill:url(#SVGID_6_)}.st7{fill:url(#SVGID_7_)}.st8,.st9{stroke:#fff}.st8{fill:#444;stroke-miterlimit:10}.st9{fill:none;stroke-width:1.323}.st10,.st11,.st9{stroke-miterlimit:10}.st10{fill:none;stroke:#353535;stroke-width:1.323}.st11{fill:#fff;stroke:#444}.st12{fill:#353535}.st13{stroke:#fff;stroke-miterlimit:10}.st13,.st14{fill:none;stroke-width:1.1222}.st14,.st15{stroke-miterlimit:10}.st14{stroke:#353535}.st15{fill:#fff;stroke:#444;stroke-width:.8482}.st16{opacity:.59;fill:#e0e0e0;enable-background:new}.st17,.st18,.st19{stroke:#444;stroke-miterlimit:10}.st17{fill:#fff;stroke-width:2}.st18,.st19{fill:none}.st18{stroke-width:2}.st19{stroke-linecap:round;stroke-linejoin:round}.st20{font-family:&apos;Arial-Black&apos;}.st21{font-size:237.7939px}.st22{fill:#3f3f3f}.st23{font-size:47px}.st25{fill:#9e9e9e}.st26{font-size:85.1719px}</style><rect id="BG_2_" width="1012.9" height="600.401" x="-1" y="-29.523" class="st0" style="fill:#fff;stroke-width:.80039549"/><linearGradient id="SVGID_1_" x1="970.508" x2="1033.342" y1="793.04" y2="526.539" gradientTransform="matrix(0.9901,0.1409,0.1425,-0.9953,-560.1741,756.2887)" gradientUnits="userSpaceOnUse"><stop style="stop-color:#9fa0a0" id="stop5" offset=".048"/><stop style="stop-color:#d7d8d8;stop-opacity:.4381" id="stop7" offset=".523"/><stop style="stop-color:#fff;stop-opacity:0" id="stop9" offset=".893"/></linearGradient><polygon id="polygon12" points="629.9 411.9 497 192.9 476.1 195.6 455 445.1" class="st1" transform="rotate(9.0573675,1023.3227,245.99283)" style="fill:url(#SVGID_1_)"/><linearGradient id="SVGID_2_" x1="206.42" x2="289.206" y1="375.151" y2="24.024" gradientTransform="matrix(0.9983,-0.05887031,-0.05887031,-0.9983,62.9962,933.7021)" gradientUnits="userSpaceOnUse"><stop style="stop-color:#898989" id="stop14" offset=".048"/><stop style="stop-color:#d7d7d7;stop-opacity:.3616" id="stop16" offset=".587"/><stop style="stop-color:#fff;stop-opacity:0" id="stop18" offset=".893"/></linearGradient><polygon id="polygon21" points="324.6 704.7 281.3 717.4 285.3 984.7 474.3 998.1" class="st2" transform="translate(6.564267,-571.67492)" style="fill:url(#SVGID_2_)"/><radialGradient id="SVGID_3_" cx="806.6" cy="567.29" r="115.029" gradientTransform="matrix(1,0,0,-1,12,786.79002)" gradientUnits="userSpaceOnUse"><stop style="stop-color:#fff" id="stop23" offset="0"/><stop style="stop-color:#fff;stop-opacity:0" id="stop25" offset="1"/></radialGradient><circle id="circle28" cx="818.6" cy="219.5" r="119.4" class="st3" style="opacity:.27000002;fill:url(#SVGID_3_);enable-background:new"/><radialGradient id="SVGID_4_" cx="270" cy="220.29" r="65.772" gradientTransform="matrix(1,0,0,-1,0,905.89)" gradientUnits="userSpaceOnUse"><stop style="stop-color:#fff" id="stop30" offset="0"/><stop style="stop-color:#fff;stop-opacity:0" id="stop32" offset="1"/></radialGradient><radialGradient id="SVGID_5_" cx="836.3" cy="323.29" r="65.713" gradientTransform="matrix(1,0,0,-1,12,786.79002)" gradientUnits="userSpaceOnUse"><stop style="stop-color:#fff" id="stop37" offset="0"/><stop style="stop-color:#fff;stop-opacity:0" id="stop39" offset="1"/></radialGradient><circle id="circle42" cx="848.3" cy="463.5" r="68.3" class="st5" style="opacity:.27000002;fill:url(#SVGID_5_);enable-background:new"/><radialGradient id="SVGID_6_" cx="477.9" cy="749.39" r="65.743" gradientTransform="matrix(1,0,0,-1,12,824.79002)" gradientUnits="userSpaceOnUse"><stop style="stop-color:#fff" id="stop44" offset="0"/><stop style="stop-color:#fff;stop-opacity:0" id="stop46" offset="1"/></radialGradient><circle id="circle49" cx="489.9" cy="75.4" r="68.3" class="st6" style="opacity:.27000002;fill:url(#SVGID_6_);enable-background:new"/><linearGradient id="SVGID_7_" x1="1774.795" x2="1840.977" y1="500.683" y2="219.982" gradientTransform="matrix(0.8607,0.5092,0.5092,-0.8607,-894.7436,63.3389)" gradientUnits="userSpaceOnUse"><stop style="stop-color:#898989" id="stop51" offset=".048"/><stop style="stop-color:#d7d7d7;stop-opacity:.3616" id="stop53" offset=".587"/><stop style="stop-color:#fff;stop-opacity:0" id="stop55" offset=".893"/></linearGradient><polygon id="polygon58" points="678.5 838.3 894.2 883.5 844.8 618.7 814.9 611.3" class="st7" transform="translate(-131.09867,-479.26745)" style="fill:url(#SVGID_7_)"/><g id="g94" transform="rotate(9.0573675,1023.3227,245.99283)"><path id="path60" d="m 529.4,169.7 -90.9,12.5 c -6.7,0.9 -12.9,-3.8 -13.8,-10.4 v 0 c -0.9,-6.7 3.8,-12.9 10.4,-13.8 L 526,145.5 c 6.7,-0.9 12.9,3.8 13.8,10.4 v 0 c 1,6.7 -3.7,12.9 -10.4,13.8 z" class="st8" style="fill:#444;stroke:#fff;stroke-miterlimit:10"/><circle id="circle62" cx="443.6" cy="169" r="6.7" class="st9" style="fill:none;stroke:#fff;stroke-width:1.32299995;stroke-miterlimit:10"/><circle id="circle64" cx="470.2" cy="165.4" r="6.7" class="st9" style="fill:none;stroke:#fff;stroke-width:1.32299995;stroke-miterlimit:10"/><circle id="circle66" cx="472.7" cy="92.1" r="4.7" class="st10" style="fill:none;stroke:#353535;stroke-width:1.32299995;stroke-miterlimit:10"/><circle id="circle68" cx="497.3" cy="161.7" r="6.7" class="st9" style="fill:none;stroke:#fff;stroke-width:1.32299995;stroke-miterlimit:10"/><circle id="circle70" cx="523.5" cy="157.8" r="6.7" class="st9" style="fill:none;stroke:#fff;stroke-width:1.32299995;stroke-miterlimit:10"/><path id="path72" d="m 517.4,144.9 -73.5,10.1 -0.5,-3.3 c -0.2,-1.8 1,-3.5 2.8,-3.7 l 66.8,-9.2 c 1.8,-0.2 3.5,1 3.7,2.8 z" class="st11" style="fill:#fff;stroke:#444;stroke-miterlimit:10"/><path id="path74" d="m 529.3,171.5 -90,12.4 0.4,2.9 c 0.3,2 2.1,3.4 4.1,3.1 l 82.8,-11.4 c 2,-0.3 3.4,-2.1 3.1,-4.1 z" class="st11" style="fill:#fff;stroke:#444;stroke-miterlimit:10"/><path id="path76" d="m 515.2,181.9 -60.5,8.3 0.5,3.6 c 0.2,1.6 1.8,2.8 3.4,2.6 l 54.5,-7.5 c 1.6,-0.2 2.8,-1.8 2.6,-3.4 z" class="st10" style="fill:none;stroke:#353535;stroke-width:1.32299995;stroke-miterlimit:10"/><path id="path78" d="m 504.8,138 -52.4,7.2 -2.2,-15.8 c -1.2,-8.7 4.9,-16.8 13.6,-18 l 20.7,-2.9 c 8.7,-1.2 16.8,4.9 18,13.6 z" class="st10" style="fill:none;stroke:#353535;stroke-width:1.32299995;stroke-miterlimit:10"/><line id="line80" x1="473.6" x2="475" y1="98.3" y2="108.5" class="st10" style="fill:none;stroke:#353535;stroke-width:1.32299995;stroke-miterlimit:10"/><line id="line82" x1="471.4" x2="462.8" y1="120.8" y2="135.6" class="st10" style="fill:none;stroke:#353535;stroke-width:1.32299995;stroke-miterlimit:10"/><line id="line84" x1="488.5" x2="479.9" y1="119" y2="133.7" class="st10" style="fill:none;stroke:#353535;stroke-width:1.32299995;stroke-miterlimit:10"/><path id="path86" d="m 470.3,196.8 -4.5,12.3 c -0.2,0.6 0.6,1.1 1,0.6 l 12.6,-13.5 c 0.4,-0.4 0,-1.1 -0.5,-1 l -8.2,1.2 c -0.1,0 -0.3,0.2 -0.4,0.4 z" class="st11" style="fill:#fff;stroke:#444;stroke-miterlimit:10"/><path id="path88" d="m 458.3,198.3 -7.5,11 c -0.4,0.6 0.3,1.2 0.9,0.8 L 467,198 c 0.5,-0.4 0.2,-1.1 -0.5,-1.1 l -7.9,1.1 c -0.1,0.1 -0.2,0.2 -0.3,0.3 z" class="st11" style="fill:#fff;stroke:#444;stroke-miterlimit:10"/><path id="path90" d="m 501.4,192.3 7.6,10.6 c 0.4,0.5 -0.2,1.2 -0.8,0.9 l -15.8,-9.6 c -0.5,-0.3 -0.3,-1 0.2,-1.1 l 8.2,-1 c 0.2,-0.1 0.4,0 0.6,0.2 z" class="st11" style="fill:#fff;stroke:#444;stroke-miterlimit:10"/><path id="path92" d="m 513.4,190.5 10.2,8.6 c 0.5,0.4 0,1.3 -0.6,1 l -18.1,-7.5 c -0.6,-0.2 -0.5,-1.1 0.1,-1.1 l 7.9,-1.1 c 0.2,-0.1 0.3,0 0.5,0.1 z" class="st11" style="fill:#fff;stroke:#444;stroke-miterlimit:10"/></g><g id="g130" transform="translate(-131.09867,-479.26745)"><path id="path96" d="M 878.4,605.6 788,590 c -6.6,-1.1 -11.1,-7.5 -10,-14.1 v 0 c 1.1,-6.6 7.5,-11.1 14.1,-10 l 90.4,15.6 c 6.6,1.1 11.1,7.5 10,14.1 v 0 c -1.2,6.7 -7.5,11.2 -14.1,10 z" class="st8" style="fill:#444;stroke:#fff;stroke-miterlimit:10"/><circle id="circle98" cx="796.7" cy="579" r="6.7" class="st9" style="fill:none;stroke:#fff;stroke-width:1.32299995;stroke-miterlimit:10"/><circle id="circle100" cx="823.3" cy="583.6" r="6.7" class="st9" style="fill:none;stroke:#fff;stroke-width:1.32299995;stroke-miterlimit:10"/><circle id="circle102" cx="847.8" cy="514.5" r="4.7" class="st10" style="fill:none;stroke:#353535;stroke-width:1.32299995;stroke-miterlimit:10"/><circle id="circle104" cx="850.2" cy="588.2" r="6.7" class="st9" style="fill:none;stroke:#fff;stroke-width:1.32299995;stroke-miterlimit:10"/><circle id="circle106" cx="876.3" cy="592.5" r="6.7" class="st9" style="fill:none;stroke:#fff;stroke-width:1.32299995;stroke-miterlimit:10"/><path id="path108" d="m 874.4,578.3 -73,-12.6 0.6,-3.3 c 0.3,-1.8 2,-3 3.8,-2.7 l 66.5,11.5 c 1.8,0.3 3,2 2.7,3.8 z" class="st11" style="fill:#fff;stroke:#444;stroke-miterlimit:10"/><path id="path110" d="m 877.7,607.3 -89.6,-15.5 -0.5,2.9 c -0.3,2 1,3.9 3,4.3 l 82.3,14.2 c 2,0.3 3.9,-1 4.3,-3 z" class="st11" style="fill:#fff;stroke:#444;stroke-miterlimit:10"/><path id="path112" d="m 861.1,612.9 -60.2,-10.4 -0.6,3.6 c -0.3,1.6 0.8,3.2 2.5,3.5 L 857,619 c 1.6,0.3 3.2,-0.8 3.5,-2.5 z" class="st12" style="fill:#353535"/><path id="path114" d="m 864.5,568 -52.1,-9 2.7,-15.7 c 1.5,-8.6 9.8,-14.5 18.4,-13 l 20.6,3.6 c 8.6,1.5 14.5,9.8 13,18.4 z" class="st10" style="fill:none;stroke:#353535;stroke-width:1.32299995;stroke-miterlimit:10"/><line id="line116" x1="846.7" x2="845" y1="520.7" y2="530.8" class="st10" style="fill:none;stroke:#353535;stroke-width:1.32299995;stroke-miterlimit:10"/><line id="line118" x1="837.8" x2="825.2" y1="541.5" y2="553" class="st10" style="fill:none;stroke:#353535;stroke-width:1.32299995;stroke-miterlimit:10"/><line id="line120" x1="854.7" x2="842.1" y1="544.9" y2="556.4" class="st10" style="fill:none;stroke:#353535;stroke-width:1.32299995;stroke-miterlimit:10"/><path id="path122" d="m 813.8,613.5 -8,10.3 c -0.4,0.5 0.2,1.2 0.8,0.9 l 16.1,-9 c 0.5,-0.3 0.4,-1 -0.2,-1.1 l -8.2,-1.3 c -0.1,0 -0.3,0.1 -0.5,0.2 z" class="st11" style="fill:#fff;stroke:#444;stroke-miterlimit:10"/><path id="path124" d="m 801.9,611.4 -10.5,8.2 c -0.5,0.4 -0.1,1.3 0.6,1 l 18.3,-6.9 c 0.6,-0.2 0.5,-1 -0.1,-1.2 l -7.8,-1.4 c -0.2,0.1 -0.4,0.2 -0.5,0.3 z" class="st11" style="fill:#fff;stroke:#444;stroke-miterlimit:10"/><path id="path126" d="m 844.8,618.6 4.1,12.4 c 0.2,0.6 -0.6,1.1 -1,0.6 l -12.2,-13.9 c -0.4,-0.4 0,-1.1 0.6,-1 l 8.1,1.5 c 0.2,0.1 0.3,0.2 0.4,0.4 z" class="st11" style="fill:#fff;stroke:#444;stroke-miterlimit:10"/><path id="path128" d="m 856.8,620.6 7.1,11.3 c 0.4,0.6 -0.4,1.2 -0.9,0.8 l -15,-12.6 c -0.5,-0.4 -0.1,-1.2 0.5,-1 l 7.8,1.4 c 0.2,-0.2 0.4,-0.1 0.5,0.1 z" class="st11" style="fill:#fff;stroke:#444;stroke-miterlimit:10"/></g><g id="g166" transform="translate(6.564267,-571.67492)"><path id="path132" d="m 336.2,686.5 -75.3,19.6 c -5.5,1.4 -11.2,-1.9 -12.6,-7.4 v 0 c -1.4,-5.5 1.9,-11.2 7.4,-12.6 L 331,666.5 c 5.5,-1.4 11.2,1.9 12.6,7.4 v 0 c 1.4,5.5 -1.9,11.2 -7.4,12.6 z" class="st8" style="fill:#444;stroke:#fff;stroke-miterlimit:10"/><circle id="circle134" cx="263.8" cy="694.5" r="5.7" class="st13" style="fill:none;stroke:#fff;stroke-width:1.12220001;stroke-miterlimit:10"/><circle id="circle136" cx="285.9" cy="688.8" r="5.7" class="st13" style="fill:none;stroke:#fff;stroke-width:1.12220001;stroke-miterlimit:10"/><circle id="circle138" cx="280.6" cy="626.8" r="4" class="st14" style="fill:none;stroke:#353535;stroke-width:1.12220001;stroke-miterlimit:10"/><circle id="circle140" cx="308.3" cy="682.9" r="5.7" class="st13" style="fill:none;stroke:#fff;stroke-width:1.12220001;stroke-miterlimit:10"/><circle id="circle142" cx="330" cy="677.1" r="5.7" class="st13" style="fill:none;stroke:#fff;stroke-width:1.12220001;stroke-miterlimit:10"/><path id="path144" d="M 323.5,666.8 262.7,682.7 262,680 c -0.4,-1.5 0.5,-3 2,-3.4 l 55.4,-14.4 c 1.5,-0.4 3,0.5 3.4,2 z" class="st15" style="fill:#fff;stroke:#444;stroke-width:.84820002;stroke-miterlimit:10"/><path id="path146" d="m 336.2,688 -74.6,19.5 0.6,2.4 c 0.4,1.7 2.1,2.7 3.8,2.2 l 68.6,-17.9 c 1.7,-0.4 2.7,-2.1 2.2,-3.8 z" class="st15" style="fill:#fff;stroke:#444;stroke-width:.84820002;stroke-miterlimit:10"/><path id="path148" d="m 325.4,698.2 -50.1,13.1 0.8,3 c 0.4,1.4 1.8,2.2 3.1,1.8 l 45.2,-11.8 c 1.4,-0.4 2.2,-1.8 1.8,-3.1 z" class="st12" style="fill:#353535"/><path id="path150" d="m 312.3,662.2 -43.4,11.3 -3.4,-13.1 c -1.9,-7.2 2.5,-14.6 9.7,-16.5 l 17.2,-4.5 c 7.2,-1.9 14.6,2.5 16.5,9.7 z" class="st14" style="fill:none;stroke:#353535;stroke-width:1.12220001;stroke-miterlimit:10"/><line id="line152" x1="282" x2="284.2" y1="632" y2="640.4" class="st14" style="fill:none;stroke:#353535;stroke-width:1.12220001;stroke-miterlimit:10"/><line id="line154" x1="282.4" x2="276.7" y1="651.1" y2="664.4" class="st14" style="fill:none;stroke:#353535;stroke-width:1.12220001;stroke-miterlimit:10"/><line id="line156" x1="296.6" x2="290.9" y1="647.9" y2="661.2" class="st14" style="fill:none;stroke:#353535;stroke-width:1.12220001;stroke-miterlimit:10"/><path id="path158" d="m 289.1,715.2 -2.5,10.8 c -0.1,0.5 0.6,0.9 0.9,0.4 l 9.3,-12.6 c 0.3,-0.4 -0.1,-0.9 -0.5,-0.8 l -6.8,1.9 c -0.2,0 -0.4,0.1 -0.4,0.3 z" class="st15" style="fill:#fff;stroke:#444;stroke-width:.84820002;stroke-miterlimit:10"/><path id="path160" d="m 279.1,717.7 -5.2,10 c -0.3,0.5 0.4,1 0.8,0.6 l 11.7,-11.7 c 0.4,-0.4 0,-1 -0.5,-0.9 l -6.5,1.7 c -0.1,0.1 -0.2,0.2 -0.3,0.3 z" class="st15" style="fill:#fff;stroke:#444;stroke-width:.84820002;stroke-miterlimit:10"/><path id="path162" d="m 314.8,708.3 7.5,8.2 c 0.4,0.4 -0.1,1 -0.6,0.8 l -14.3,-6.5 c -0.4,-0.2 -0.4,-0.8 0.1,-1 l 6.8,-1.7 c 0.2,0 0.4,0.1 0.5,0.2 z" class="st15" style="fill:#fff;stroke:#444;stroke-width:.84820002;stroke-miterlimit:10"/><path id="path164" d="m 324.7,705.6 9.4,6.2 c 0.5,0.3 0.1,1.1 -0.4,0.9 l -16,-4.5 c -0.5,-0.1 -0.5,-0.9 0,-1 l 6.5,-1.7 c 0.3,0 0.4,0 0.5,0.1 z" class="st15" style="fill:#fff;stroke:#444;stroke-width:.84820002;stroke-miterlimit:10"/></g><path id="path168" d="m 241.14107,500.13922 h -1 c 0.4,-1.2 0.6,-2.4 0.6,-3.7 0,-7 -5.7,-12.7 -12.7,-12.7 h -3.3 c -2.7,0 -5.2,0.9 -7.2,2.3 -1.2,-0.8 -2.7,-1.3 -4.3,-1.3 -0.7,0 -1.4,0.1 -2.1,0.3 -0.1,-3.9 -3.3,-7.1 -7.2,-7.1 h -0.3 c -2.2,0 -4.1,1 -5.4,2.5 v 0 c 2.7,-3.8 4.4,-8.5 4.4,-13.6 0,-13 -10.6,-23.5 -23.5,-23.5 -13,0 -23.5,10.6 -23.5,23.5 0,0.7 0,1.3 0.1,1.9 -2.9,0.3 -5.7,1.3 -8,2.9 -3.2,-4.3 -8.2,-7.1 -13.9,-7.1 v 0 c -9.5,0 -17.3,7.8 -17.3,17.3 0,0.1 0,0.3 0,0.4 -1.8,-0.9 -3.7,-1.5 -5.9,-1.5 -6.9,0 -12.6,5.7 -12.6,12.6 0,0.7 0.1,1.5 0.2,2.2 h -6.200003 c -3,0 -5.5,1.9 -6.5,4.5 h -9.9 c -2.5,0 -4.5,2 -4.5,4.5 0,2.5 2,4.5 4.5,4.5 h 149.200003 3.3 13.1 c 2.5,0 4.5,-2 4.5,-4.5 -0.1,-2.4 -2.1,-4.4 -4.6,-4.4 z" class="st16" style="opacity:.58999999;fill:#e0e0e0;enable-background:new"/><path id="path170" d="m 898.3696,492.32748 h -0.9 c 0.3,-1 0.5,-2.1 0.5,-3.3 0,-6.2 -5.1,-11.3 -11.3,-11.3 h -2.9 c -2.4,0 -4.6,0.8 -6.4,2 -1.1,-0.7 -2.4,-1.1 -3.8,-1.1 -0.6,0 -1.2,0.1 -1.8,0.3 -0.1,-3.5 -2.9,-6.3 -6.4,-6.3 h -0.4 c -1.9,0 -3.6,0.9 -4.8,2.2 v 0 c 2.4,-3.4 3.9,-7.6 3.9,-12 0,-11.5 -9.4,-20.9 -20.9,-20.9 -11.5,0 -20.9,9.4 -20.9,20.9 0,0.6 0,1.2 0.1,1.7 -2.6,0.2 -5,1.2 -7.1,2.6 -2.8,-3.8 -7.3,-6.3 -12.3,-6.3 v 0 c -8.5,0 -15.4,6.9 -15.4,15.4 0,0.1 0,0.2 0,0.4 -1.6,-0.8 -3.3,-1.4 -5.2,-1.4 -6.2,0 -11.2,5 -11.2,11.2 0,0.7 0.1,1.3 0.2,1.9 h -5.5 c -2.6,0 -4.9,1.7 -5.8,4 h -8.8 c -2.2,0 -4,1.8 -4,4 0,2.2 1.8,4 4,4 h 132.5 2.9 11.6 c 2.2,0 4,-1.8 4,-4 0.1,-2.2 -1.7,-4 -3.9,-4 z" class="st16" style="opacity:.58999999;fill:#e0e0e0;enable-background:new"/><g id="g184" transform="translate(10.641067,-151.56078)"><g id="g178"><path id="path172" d="m 149.5,598 c 2.4,4.6 6.2,8.3 10.8,10.8 3.6,1.9 7.6,3 11.9,3 14.2,0 25.7,-11.5 25.7,-25.7 0,-4.3 -1.1,-8.4 -3,-11.9 -2.4,-4.6 -6.2,-8.3 -10.8,-10.8 -3.6,-1.9 -7.6,-3 -11.9,-3 -14.2,0 -25.7,11.5 -25.7,25.7 0.1,4.3 1.2,8.3 3,11.9 z" class="st17" style="fill:#fff;stroke:#444;stroke-width:2;stroke-miterlimit:10"/><path id="path174" d="m 194.1,574.5 c -2.3,-4.4 -6,-8.1 -10.4,-10.4 -3.4,-1.8 -7.4,-2.9 -11.5,-2.9 -9.5,0 -17.7,5.3 -21.8,13.1 4,-2.8 8.9,-4.4 14.1,-4.4 4.2,0 8.1,1 11.5,2.9 4.4,2.3 8.1,6 10.4,10.4 1.8,3.4 2.9,7.4 2.9,11.5 0,4.2 -1.1,8.2 -2.9,11.7 6.4,-4.5 10.6,-11.9 10.6,-20.3 0,-4.3 -1,-8.2 -2.9,-11.6 z" class="st16" style="opacity:.58999999;fill:#e0e0e0;enable-background:new"/><path id="path176" d="m 149.5,598 c -7.7,10 -11.6,17.8 -9.3,20.1 2.3,2.3 10.1,-1.6 20.1,-9.3 5.6,-4.4 12,-9.9 18.3,-16.3 6.4,-6.4 11.9,-12.7 16.3,-18.3 7.7,-10 11.6,-17.8 9.3,-20.1 -2.3,-2.3 -10.1,1.6 -20.1,9.3" class="st18" style="fill:none;stroke:#444;stroke-width:2;stroke-miterlimit:10"/></g><path id="path180" d="m 154,578.3 c 0.5,-1.2 1.1,-2.3 1.8,-3.4 0.7,-1.1 1.5,-2 2.4,-2.9 0.9,-0.9 1.9,-1.7 2.9,-2.4 1.1,-0.7 2.2,-1.3 3.4,-1.8 1.2,-0.5 2.4,-0.9 3.7,-1.2 1.3,-0.3 2.6,-0.4 4,-0.4" class="st19" style="fill:none;stroke:#444;stroke-linecap:round;stroke-linejoin:round;stroke-miterlimit:10"/><path id="path182" d="m 152.4,586.1 c 0,-1.4 0.1,-2.7 0.4,-4" class="st19" style="fill:none;stroke:#444;stroke-linecap:round;stroke-linejoin:round;stroke-miterlimit:10"/></g><g id="g192" transform="translate(-0.2304,199.22748)"><polygon id="polygon186" points="856.6 241.3 850 253.4 843.4 241.3 831.4 234.7 843.4 228.1 850 216.1 856.6 228.1 868.7 234.7" class="st17" style="fill:#fff;stroke:#444;stroke-width:2;stroke-miterlimit:10"/><polygon id="polygon188" points="878.3 270 873.4 279.1 868.4 270 859.4 265.1 868.4 260.1 873.4 251.1 878.3 260.1 887.4 265.1" class="st17" style="fill:#fff;stroke:#444;stroke-width:2;stroke-miterlimit:10"/><polygon id="polygon190" points="890.7 226.4 887.4 232.4 884.1 226.4 878 223.1 884.1 219.8 887.4 213.7 890.7 219.8 896.7 223.1" class="st17" style="fill:#fff;stroke:#444;stroke-width:2;stroke-miterlimit:10"/></g><text id="text194" x="282.141" y="385.022" class="st20 st21" style="font-size:237.79389954px;font-family:Arial-Black;fill:#4d4d4d">404</text><text id="text200" x="213.283" y="436.12" style="font-size:9.91014194px;stroke-width:.825845"><tspan id="tspan198" x="332.7" y="436.12" class="st22 st20 st23" style="font-size:38.81472015px;font-family:Arial-Black;fill:#3f3f3f;stroke-width:.825845">PAGE NOT FOUND</tspan></text><text id="text202" x="74.551" y="323.48" class="st25 st20 st26" style="font-size:85.17189789px;font-family:Arial-Black;fill:#9e9e9e">OOP</text><text id="text204" x="756.216" y="322.525" class="st25 st20 st26" style="font-size:85.17189789px;font-family:Arial-Black;fill:#9e9e9e">SS!</text></svg>